<svg xmlns="http://www.w3.org/2000/svg" xmlns:xlink="http://www.w3.org/1999/xlink" width="682.5" height="590.96" viewBox="0 0 682.5 590.96"><defs><style>.a{fill:#ffdad1;}.b,.f{fill:none;stroke:#2f318d;}.b{stroke-width:8px;}.c{stroke:rgba(0,0,0,0);fill:url(#a);}.d{fill:url(#b);}.e{fill:#2f318d;}.f{stroke-miterlimit:10;stroke-width:2.623px;}</style><linearGradient id="a" x1="0.101" y1="0.906" x2="1.123" gradientUnits="objectBoundingBox"><stop offset="0" stop-color="#2ec7bc"/><stop offset="0.562" stop-color="#2cd8ae"/><stop offset="1" stop-color="#29ec9e"/></linearGradient><linearGradient id="b" x1="0.027" y1="1" x2="1.111" y2="0.195" gradientUnits="objectBoundingBox"><stop offset="0" stop-color="#2f318d"/><stop offset="1" stop-color="#7c7fff"/></linearGradient></defs><g transform="translate(1109.287 -40.604)"><rect class="a" width="384" height="174" transform="translate(-1109.287 390.604)"/><rect class="b" width="298" height="463" transform="translate(-900.287 44.604)"/><circle class="c" cx="174.5" cy="174.5" r="174.5" transform="translate(-776.287 105.604)"/><path class="d" d="M592.874,458.288H204.37V240.4h-.1a81.01,81.01,0,0,0-14.425-44.578A81.466,81.466,0,0,0,154.3,167.03a81.055,81.055,0,0,0-76.666,7.658A81.562,81.562,0,0,0,48.2,210.475a80.916,80.916,0,0,0-6.384,31.661c0,2.563.121,5.15.358,7.69V458.287H0V0H173.555V55.9h53.306v56.878h62.486v56.508H352.17v56.878h59.522V283.02H473.68v55.59H592.874V458.287Z" transform="translate(-1020.161 145.081)"/><g transform="translate(-764.289 305.58)"><g transform="translate(-33.534 27.784)"><g transform="translate(72.842 61.152)"><path class="c" d="M968.377,267.409l1.093-.047a80.589,80.589,0,0,0-3.1-17.26c-2.53-8.549-7.664-19.973-17.761-25.854-11.674-6.8-17.276-22.249-21.777-34.662-2.872-7.921-5.353-14.762-8.775-17.713-8.43-7.266-15.64-23.171-15.712-23.331l-1,.45c.3.661,7.382,16.285,16,23.71,3.206,2.765,5.641,9.48,8.461,17.257,4.563,12.58,10.239,28.236,22.254,35.234C966.82,236.121,968.365,267.1,968.377,267.409Z" transform="translate(-901.347 -148.543)"/></g><path class="c" d="M878.729,213.795s9.9,1.551,16.614-10.987,27.031-6.72,30.053-15.219a152.311,152.311,0,0,1,6.433-15.314s-9.451,6.778-17.179,7.126-20.005,7.952-23.52,15.853S876.764,209.715,878.729,213.795Z" transform="translate(-754.173 -73.024)"/><path class="c" d="M894.648,220.141s-.164-9.738,8.321-12.212S925.734,194.2,927.651,180.1s2.906-29.944,7.3-35.563-4.249-1.511-12.1,11.466-8.192,27.782-15.2,32.049S893.288,211.6,894.648,220.141Z" transform="translate(-784.152 -91.305)"/><path class="c" d="M902.543,196.668c-.043,1.422,4.609-9.162,9.88-12.5a12,12,0,0,0,5.744-8.236,9.208,9.208,0,0,0,8.589-3.562c3.742-4.583,3.325-17.263,7.436-25.658s13.388-19.035,12.616-22.407-6.237,7.639-13.738,11.307-18.022,15.837-20.326,28.254S902.732,190.359,902.543,196.668Z" transform="translate(-807.806 -102.448)"/><path class="c" d="M927.579,185.576c.026.307-.387-7.489,8.958-13.177s9.629-19.949,6.768-30.119.671-12.574.708-18.616-3.246-11.854-3.246-11.854.032,10.994-5.449,16.507S927.1,145.1,929.183,151.9s6.006,6.078,3.246,11.856S927.336,182.564,927.579,185.576Z" transform="translate(-846.019 -109.63)"/><path class="c" d="M973.594,198.215s-3.108-1.951-7.765,6.391-6.976,15.259-18.795,12.464-31.895.2-34.844-3.381,11.977,1.162,21.481-6.158,22.691-1.646,26.977-6.176S973.594,198.215,973.594,198.215Z" transform="translate(-849.427 -57.441)"/><path class="c" d="M1004.555,194.134s-8.589,3.562-20.408.767-22.484,16.5-39.606,6.049-28.009-11.509-22.354-13.16,20.968,4.783,27.047-1.223,48.47,10.2,55.321,7.566" transform="translate(-894.63 -65.184)"/><path class="c" d="M1014.109,174.954s-10.973-5.349-19.774.392-16.95,10.446-27.839,9.39-29.573-6.717-35.879-4.031,8.836-11.782,20.655-8.987,20.356-.223,23.29-2.137,6.216,3.9,6.972,1.776,2.108-4.741,5.972-4.916S1011.879,169.13,1014.109,174.954Z" transform="translate(-917.754 -76.56)"/><path class="c" d="M1019.593,167.24c-.617-.84-13.155-7.552-26.046-4.954s-19.916,1.365-29.627-6.173-25.043-2.429-25.043-2.429,5.5-17.053,18.3-13.063,24.532,13.372,34.491,12.689S1019.593,167.24,1019.593,167.24Z" transform="translate(-938.876 -92.553)"/><path class="c" d="M993.9,173.474s8.743-11.988-3.408-17.014-17.682-16-19.771-22.8-8.024-7.924-17.175-9.91-12.449-13.3-12.449-13.3-.6,17.526,9.865,22.938,11.217,20.325,19.453,26.069S988.23,176.418,993.9,173.474Z" transform="translate(-919.777 -110.452)"/></g><g transform="translate(55.589 193.783)"><path class="e" d="M996.739,608.856s-27.867-3.029-29.684,0,1.211,19.992-1.212,24.838-14.54,9.693-13.328,33.925,17.569,69.669,17.569,69.669a38.147,38.147,0,0,0,26.655,0s10.3-52.706,12.116-66.034-7.875-36.349-12.722-39.984S998.557,611.885,996.739,608.856Z" transform="translate(-933.989 -607.51)"/><path class="f" d="M952.821,654.9s-8.482-21.2-20.6-14.54-7.27,32.108,16.357,47.253" transform="translate(-925.813 -617.201)"/><path class="f" d="M1018.133,652.273s8.481-21.2,20.6-14.539,7.27,32.108-16.357,47.253" transform="translate(-954.17 -616.395)"/></g></g></g></svg>