<svg xmlns="http://www.w3.org/2000/svg" xmlns:xlink="http://www.w3.org/1999/xlink" width="449.26" height="631.599" viewBox="0 0 449.26 631.599"><defs><style>.a{fill:#2ec7bc;}.b{fill:#ffdad1;}.c{fill:#2f318d;}.d{stroke:rgba(0,0,0,0);fill:url(#a);}</style><linearGradient id="a" x1="0.101" y1="0.906" x2="1.123" gradientUnits="objectBoundingBox"><stop offset="0" stop-color="#2ec7bc"/><stop offset="0.562" stop-color="#2cd8ae"/><stop offset="1" stop-color="#29ec9e"/></linearGradient></defs><g transform="translate(-1052.344 -275.737)"><path class="a" d="M1242.91,721.31l8.8-.825c-8.844-2.088-17.729-3.523-26.424-5.923-51.258-14.147-91.578-42.776-117.234-89.989-8.332-15.334-13.011-32.336-17.512-49.234-1.053-3.952.293-5.188,4.173-5.729,21.54-3,43.179-2.388,64.793-1.894,33.967.775,67.86-.951,101.768-2.355l41.118-2.92q25.087-1.992,50.176-3.983c19.569-1.545,39.13-3.218,58.712-4.58,20.92-1.456,41.855-2.6,62.854-2.211,4.873.09,6.822,1.287,6.223,6.5-.995,8.664-3.61,16.9-5.527,25.32-3.94,17.31-11.3,33.024-20.28,48-20.858,34.778-48.325,62.072-87.677,75.552a274.145,274.145,0,0,1-66.253,13.909c-1.563.13-3.426-.429-4.449,1.448a3.139,3.139,0,0,1-.848.34c-7.557-.649-15.093-1.452-22.707-1.352C1262.717,721.51,1252.812,721.347,1242.91,721.31Z"/><path class="b" d="M1302.394,562.441l-41.118,2.92c-5.253-1.823-10.791-1.009-16.183-1.654-26.643-3.187-52.226-9.62-75.6-23.24a56.356,56.356,0,0,1-26.88-35.116c-3.7-13.648-6.839-27.409-6.194-41.719.09-1.991.554-3.982.629-5.9.207-5.272,3.274-6.234,7.631-6.22,19.326.061,38.652-.052,57.976.081,7.638.052,15.272.593,22.909.878,1.308.049,2.692.261,3.784-.8,4.937.359,9.9.524,14.806,1.119,7.775.944,15.546-.533,23.305.224.421,1.476,1.611,1.394,2.8,1.454,13.41.676,26.843,1.076,40.223,2.136,23.1,1.829,46.265,3.07,69.156,6.99,9.128,1.563,10,2.333,9.682,11.867-.754,22.276-9.135,40.886-25.994,55.956-16.364,14.626-35.773,22.476-56.488,28C1305.014,559.9,1302.65,559.635,1302.394,562.441Z"/><path class="c" d="M1267.457,453.011c-7.759-.757-15.53.72-23.305-.224-4.909-.6-9.869-.76-14.806-1.119-22.984-3.232-41.153-14.215-53.683-33.887a136.388,136.388,0,0,1-19.394-49.358c-.551-3.043-.24-4.085,3.183-4.035,50.59.731,101.2-.734,151.776,1.309,14.788.6,29.548,1.894,44.316,2.942,2.021.143,4.4-.148,4.2,3.362-1.057,18.612-5.088,36.148-16.956,51.215-12.7,16.125-30.154,23.413-49.538,27.281A155.589,155.589,0,0,1,1267.457,453.011Z"/><path class="d" d="M1223.19,305.941c.087-18.5,13.318-29.761,34.9-29.7,17.153.045,29.489,12.257,29.385,29.089-.112,18.244-16.595,34.474-34.755,34.225C1236.946,339.335,1223.106,323.582,1223.19,305.941Z"/><path class="c" d="M1498.179,859.452c-.014.215-.038.426-.07.634.032-.208.056-.419.07-.634a3.925,3.925,0,0,0-.735-3.351q-1.582-6.333-3.164-12.667c-1.8-8.175-5.133-15.793-8.894-23.189-19.726-38.8-52.382-62.3-92.05-77.422a8.694,8.694,0,0,1-1.164,1.044,8.694,8.694,0,0,0,1.164-1.044c-1.377-.56-2.742-1.148-4.131-1.674a209.945,209.945,0,0,0-30.748-9.036h0c-20.394-5.6-41.271-8.109-62.284-9.721a3.146,3.146,0,0,1-.847.34c-7.557-.649-15.094-1.453-22.708-1.352-9.9.13-19.805-.033-29.708-.07-17.827.422-35.54,2.209-53.237,4.29a127.1,127.1,0,0,0-57.469,21.149c-33.082,22.484-55.116,53.476-68.826,90.679a172.493,172.493,0,0,0-10.966,65.059c.068,2.381-.507,4.947,3.658,4.846,22.133-.539,44.272-.813,66.408-1.179,1.159.061,2.318.177,3.477.176,44.223-.053,88.447-.014,132.669-.218,26.591-.123,53.179-.628,79.769-.961l2.029-.061c11.172.269,22.323-.327,33.477-.828a38.371,38.371,0,0,0,9.562-.349h0l18.723-.567c6.765.582,13.441-.515,20.145-1.079l4.032-.1c24.231-.706,48.345-3.133,72.5-4.913,2.19-.161,2.762-1.176,2.737-3.186C1501.459,882.431,1500.914,870.835,1498.179,859.452Zm-228.568-57.185a1.783,1.783,0,0,0-.463-.379A1.783,1.783,0,0,1,1269.611,802.267Zm-1.385-.659a2.372,2.372,0,0,1,.639.146,2.372,2.372,0,0,0-.639-.146c-.085-.007-.17-.012-.252-.013C1268.056,801.6,1268.141,801.6,1268.226,801.608Zm-1.419.935a.979.979,0,0,1,.465-.8.975.975,0,0,0-.463.794,1.8,1.8,0,0,0,1.522,1.662A1.8,1.8,0,0,1,1266.807,802.543Zm2.933,1.422a1.083,1.083,0,0,0,.223-.887,1.479,1.479,0,0,0-.184-.571,1.479,1.479,0,0,1,.184.571A1.083,1.083,0,0,1,1269.74,803.965Zm6.041,1.264h0a.922.922,0,0,0,.288-.046A.922.922,0,0,1,1275.781,805.229Zm84.669-44.776a1.92,1.92,0,0,0-1.475.69,1.837,1.837,0,0,0-.547,1.5,1.837,1.837,0,0,1,.547-1.5A1.92,1.92,0,0,1,1360.45,760.453Zm-6.931,23.432a2.877,2.877,0,0,0,.333.814A2.877,2.877,0,0,1,1353.519,783.885Zm-.041-3.49c.043-.539.1-1.076.185-1.606C1353.581,779.319,1353.521,779.856,1353.478,780.4Zm1.893,5.475a3.482,3.482,0,0,1-1.011-.578A3.482,3.482,0,0,0,1355.371,785.87Zm2.217-49.983c-3.484,2.341-6.821,4.9-10.272,7.527q-1.725,1.314-3.5,2.645h0q1.778-1.328,3.5-2.645C1350.767,740.787,1354.1,738.228,1357.588,735.887Zm-38.107,24.389c.984-.465,1.937-.975,2.865-1.52s1.83-1.126,2.713-1.734,1.748-1.243,2.6-1.9c3.4-2.613,6.6-5.52,9.987-8.162.389-.3.8-.608,1.174-.936-.378.328-.785.632-1.174.936-3.385,2.642-6.583,5.549-9.987,8.162-.851.654-1.716,1.289-2.6,1.9s-1.786,1.189-2.713,1.734-1.881,1.055-2.865,1.52a31.454,31.454,0,0,1-3.054,1.252A31.454,31.454,0,0,0,1319.481,760.276Zm-6.6,4.611c.128-.159.257-.323.389-.489.262-.332.531-.673.811-1-.28.329-.549.67-.811,1-.132.166-.261.33-.389.489a1.13,1.13,0,0,0-.176.294A1.13,1.13,0,0,1,1312.882,764.887Zm-.246.6a1.171,1.171,0,0,0,.121.589A1.171,1.171,0,0,1,1312.636,765.484Zm20.146,21.764a2.688,2.688,0,0,0,.491-.078A2.688,2.688,0,0,1,1332.782,787.248Zm1.041-.262a7,7,0,0,0,1.284-.722A7,7,0,0,1,1333.823,786.986Zm6.749,2.966a9.671,9.671,0,0,1-1.443-1.432,9.671,9.671,0,0,0,1.443,1.432c.346.3.695.591,1.017.9C1341.267,790.543,1340.918,790.249,1340.572,789.952Zm3.561,3.677c.478.5.959,1,1.43,1.5C1345.092,794.627,1344.611,794.129,1344.133,793.629Zm3.448,3.839a17.108,17.108,0,0,1,1.15,1.677A17.108,17.108,0,0,0,1347.581,797.468Zm9.862,7.419c-.045.215-.081.426-.1.631a3.52,3.52,0,0,1-.648,1.806,2.451,2.451,0,0,1-.851.7,4.245,4.245,0,0,1-1.857.388h0a4.245,4.245,0,0,0,1.857-.388,2.451,2.451,0,0,0,.851-.7,3.52,3.52,0,0,0,.648-1.806c.022-.205.058-.416.1-.631.088-.429.211-.873.328-1.313C1357.654,804.014,1357.531,804.458,1357.443,804.887Zm3.337-9.12c-.394,0-.785.009-1.158.035C1359.995,795.776,1360.386,795.768,1360.78,795.767Zm1.176,0c.045-1.192-.856-1.962-1.542-2.738.686.776,1.587,1.546,1.542,2.738Zm9.553-38.283a1.566,1.566,0,0,1,.464-.673A1.566,1.566,0,0,0,1371.509,757.488Zm4.465-1.251a3.175,3.175,0,0,0,.39-1.095A3.175,3.175,0,0,1,1375.974,756.237Zm11.116-10.994q.332.027.66.03Q1387.422,745.27,1387.09,745.243Zm89.857,94.451a5.766,5.766,0,0,0-.226-.673,6.067,6.067,0,0,1,.227.672Z"/></g></svg>