<svg xmlns="http://www.w3.org/2000/svg" width="160" height="160" viewBox="0 0 160 160"><defs><style>.a,.d{fill:#4bc1bc;}.a{opacity:0.2;}.b{fill:#ffd3b3;}.c{fill:#edeff1;}.e{fill:#00afc2;}.f{fill:#e47e76;}</style></defs><g transform="translate(-1039 -1763)"><rect class="a" width="120" height="120" rx="60" transform="translate(1039 1763)"/><g transform="translate(1079 1803)"><path class="b" d="M0,208H16.528a40,40,0,0,1,21.2,6.08l4.763,2.976A71.993,71.993,0,0,0,80.65,228h5.81a20.019,20.019,0,0,0,10.29-2.85l.5-.3A20.014,20.014,0,0,1,107.54,222H120v38H0Zm0,0" transform="translate(0 -156)"/><path class="c" d="M0,416H120v16H0Zm0,0" transform="translate(0 -312)"/><path class="d" d="M0,448H120v8H0Zm0,0" transform="translate(0 -336)"/><path class="e" d="M200,0H171.315a7.991,7.991,0,0,0-5.656,2.344l-2.143,2.143A11.991,11.991,0,0,0,160,12.97V18l4,6h32l4-6V16a4,4,0,0,1,4-4h36V0Zm0,0" transform="translate(-120)"/><path class="d" d="M160,72h40l-4,6H164Zm0,0" transform="translate(-120 -54)"/><g transform="translate(43.292 26)"><path class="f" d="M187,136.306V107.7A1.971,1.971,0,0,0,188,106a2,2,0,0,0-4,0,1.971,1.971,0,0,0,1,1.694v28.613A1.965,1.965,0,0,0,184,138a2,2,0,0,0,4,0,1.971,1.971,0,0,0-1-1.694Zm0,0" transform="translate(-181.292 -104.001)"/><path class="f" d="M173.168,222.586l1.414-1.414,2,2-1.414,1.414Zm0,0" transform="translate(-173.168 -191.879)"/><path class="f" d="M197.168,223.172l2-2,1.414,1.414-2,2Zm0,0" transform="translate(-191.168 -191.879)"/><path class="f" d="M235,142.306V107.695A1.971,1.971,0,0,0,236,106a2,2,0,1,0-4,0,1.971,1.971,0,0,0,1,1.694v34.613A1.965,1.965,0,0,0,232,144a2,2,0,0,0,4,0,1.971,1.971,0,0,0-1-1.694Zm0,0" transform="translate(-217.292 -104.001)"/><path class="f" d="M221.168,246.586l1.414-1.414,2,2-1.414,1.414Zm0,0" transform="translate(-209.168 -209.879)"/><path class="f" d="M245.168,247.172l2-2,1.414,1.414-2,2Zm0,0" transform="translate(-227.168 -209.879)"/><path class="f" d="M283,144.306V107.695A1.971,1.971,0,0,0,284,106a2,2,0,1,0-4,0,1.971,1.971,0,0,0,1,1.694v36.613A1.965,1.965,0,0,0,280,146a2,2,0,1,0,4,0,1.971,1.971,0,0,0-1-1.694Zm0,0" transform="translate(-253.292 -104.001)"/><path class="f" d="M269.168,254.586l1.414-1.414,2,2-1.414,1.414Zm0,0" transform="translate(-245.168 -215.879)"/><path class="f" d="M293.168,255.172l2-2,1.414,1.414-2,2Zm0,0" transform="translate(-263.168 -215.879)"/></g></g></g></svg>