<svg xmlns="http://www.w3.org/2000/svg" width="23.976" height="24" viewBox="0 0 23.976 24"><defs><style>.a{fill:#6c6e70;}</style></defs><g transform="translate(-0.253 0)"><path class="a" d="M19.979.578a3.257,3.257,0,0,0-4.372.617L12.927,4.469,3.2,14.192a2.819,2.819,0,0,0-.456,3.393l-.656.567A5.306,5.306,0,0,0,.253,22.171v1.806h1.41V22.171A3.9,3.9,0,0,1,3.014,19.22l.72-.622a2.82,2.82,0,0,0,3.46-.417l9.723-9.723,3.275-2.679a3.256,3.256,0,0,0,.8-4.08,1.512,1.512,0,0,1,1.832,1.479v8.664a1.511,1.511,0,0,1-1.51,1.51H17.177a2.821,2.821,0,0,0,0,5.641H20v-1.41H17.177a1.41,1.41,0,1,1,0-2.821h4.132a2.923,2.923,0,0,0,2.92-2.92V3.179a2.921,2.921,0,0,0-4.251-2.6ZM4.2,17.184a1.409,1.409,0,0,1,0-1.995l.5-.5,1.995,1.995-.5.5A1.41,1.41,0,0,1,4.2,17.184Zm3.49-1.5L5.7,13.694,13.451,5.94l1.995,1.995ZM19.973,3.35A1.826,1.826,0,0,1,19.3,4.688l-2.808,2.3L14.4,4.9l2.3-2.808a1.846,1.846,0,0,1,2.736-.136A1.827,1.827,0,0,1,19.973,3.35Z" transform="translate(0 0)"/><path class="a" d="M89.753,480.506h2.116v1.41H89.753Z" transform="translate(-85.292 -457.916)"/><path class="a" d="M164.753,480.506h2.116v1.41h-2.116Z" transform="translate(-156.767 -457.916)"/><path class="a" d="M239.753,480.506h2.116v1.41h-2.116Z" transform="translate(-228.241 -457.916)"/><path class="a" d="M314.753,480.506h2.116v1.41h-2.116Z" transform="translate(-299.715 -457.916)"/><path class="a" d="M389.753,480.506h2.116v1.41h-2.116Z" transform="translate(-371.189 -457.916)"/><path class="a" d="M464.753,480.506h2.116v1.41h-2.116Z" transform="translate(-442.663 -457.916)"/></g></svg>