<svg xmlns="http://www.w3.org/2000/svg" width="22.91" height="24" viewBox="0 0 22.91 24"><defs><style>.a{fill:#6c6e70;}</style></defs><path class="a" d="M25.925,2.566C24.641.836,23.293.031,21.681.031a9.806,9.806,0,0,0-3.034.658L18.615.7a9.892,9.892,0,0,1-3.091.666A10.011,10.011,0,0,1,12.4.674,9.933,9.933,0,0,0,9.34,0C7.72,0,6.4.822,5.2,2.585c-1.9,2.766-.821,5.727.049,8.115A9.588,9.588,0,0,1,6,13.525C6,17.416,6.819,24,9.894,24c2.1,0,2.752-2.445,3.325-4.609.608-2.278,1.135-3.89,2.38-3.89,1.074,0,1.485,1.044,2.054,3.546.493,2.186,1.106,4.907,3.693,4.907,3.609,0,3.89-7.986,3.89-10.434a9.79,9.79,0,0,1,.728-2.767l.015-.042C26.841,8.273,27.913,5.239,25.925,2.566Zm-1.806,7.487-.014.039a10.9,10.9,0,0,0-.842,3.428,25.6,25.6,0,0,1-.671,6.178c-.5,1.873-1.069,2.283-1.247,2.283-.792,0-1.172-.724-1.771-3.377-.488-2.142-1.155-5.076-3.977-5.076-2.856,0-3.682,3.094-4.288,5.364-.331,1.248-.83,3.135-1.417,3.135-.091,0-.664-.4-1.189-2.276a24.475,24.475,0,0,1-.734-6.227A10.782,10.782,0,0,0,7.1,10.017C6.311,7.86,5.5,5.63,6.824,3.7,7.866,2.178,8.68,1.973,9.34,1.973a8.462,8.462,0,0,1,2.438.574,11.664,11.664,0,0,0,3.746.792,11.729,11.729,0,0,0,3.706-.764l.034-.011A8.294,8.294,0,0,1,21.681,2c.677,0,1.523.206,2.661,1.739C25.7,5.573,24.9,7.85,24.119,10.053Z" transform="translate(-4.142)"/></svg>