<svg xmlns="http://www.w3.org/2000/svg" width="26.245" height="24" viewBox="0 0 26.245 24"><defs><style>.a{fill:#6c6e70;}</style></defs><path class="a" d="M124.154,234.256a2.534,2.534,0,0,0-5.067,0h1.538a1,1,0,0,1,1.992,0Z" transform="translate(-112.91 -220.826)"/><path class="a" d="M291.744,231.721a2.537,2.537,0,0,0-2.534,2.534h1.538a1,1,0,0,1,1.992,0h1.538A2.537,2.537,0,0,0,291.744,231.721Z" transform="translate(-274.209 -220.825)"/><path class="a" d="M185.3,342.446a2.775,2.775,0,0,1-2.379-1.361l-1.324.781a4.3,4.3,0,0,0,7.407,0l-1.324-.781A2.775,2.775,0,0,1,185.3,342.446Z" transform="translate(-172.175 -324.516)"/><path class="a" d="M25.245,32.35a3.4,3.4,0,0,0-1.772-.939,10.9,10.9,0,0,0-10.35-7.522h-.516a2.248,2.248,0,0,1-2.245-2.245H8.824a3.762,3.762,0,0,0,.741,2.245H9.077a2.248,2.248,0,0,1-2.245-2.245H5.294a3.789,3.789,0,0,0,2.594,3.591A10.879,10.879,0,0,0,2.773,31.41a3.417,3.417,0,0,0,0,6.711,10.881,10.881,0,0,0,20.7,0,3.417,3.417,0,0,0,1.772-5.771Zm-2.378,4.293-.577.011-.151.557a9.343,9.343,0,0,1-18.032,0l-.151-.557-.577-.011a1.887,1.887,0,0,1-1.841-1.877,1.876,1.876,0,0,1,1.841-1.877l.577-.011.151-.557a9.353,9.353,0,0,1,9.016-6.894A2.521,2.521,0,1,1,10.6,27.947H9.064a4.058,4.058,0,1,0,7.706-1.777,9.345,9.345,0,0,1,5.368,6.15l.151.557.577.011a1.878,1.878,0,0,1,0,3.754Z" transform="translate(0 -21.643)"/></svg>