<svg xmlns="http://www.w3.org/2000/svg" xmlns:xlink="http://www.w3.org/1999/xlink" width="103" height="100.026" viewBox="0 0 103 100.026"><defs><style>.a,.c{fill:#2f318d;}.b{fill:url(#a);}.c{font-size:25px;font-family:NeueEinstellung-Bold, Neue Einstellung;font-weight:700;}.d{font-family:NeueEinstellung-Regular, Neue Einstellung;font-weight:400;}</style><linearGradient id="a" x1="9.134" y1="3.244" x2="13.552" y2="3.244" gradientUnits="objectBoundingBox"><stop offset="0" stop-color="#2ec7bc"/><stop offset="1" stop-color="#29ec9e"/></linearGradient></defs><g transform="translate(-261.285 -401.125)"><g transform="translate(261.285 401.125)"><path class="a" d="M304.533,475v.095a10.771,10.771,0,0,1-14.3,10.186,43.289,43.289,0,1,1,55.186-55.122,10.763,10.763,0,0,1-10.2,14.252h-.26a10.619,10.619,0,0,1-9.993-7.178,21.644,21.644,0,1,0-27.705,27.576A10.843,10.843,0,0,1,304.533,475Z" transform="translate(-261.285 -401.125)"/><g transform="translate(32.467 32.467)"><g transform="translate(3.212 3.212)"><g transform="translate(0 0)"><rect class="b" width="21.645" height="64.874" transform="translate(0 15.305) rotate(-45)"/></g></g><circle class="a" cx="10.822" cy="10.822" r="10.822"/><circle class="a" cx="10.822" cy="10.822" r="10.822" transform="translate(22.958 22.958)"/><g transform="translate(45.915 45.915)"><circle class="a" cx="10.822" cy="10.822" r="10.822"/></g></g></g></g></svg>