<svg xmlns="http://www.w3.org/2000/svg" xmlns:xlink="http://www.w3.org/1999/xlink" width="557.315" height="661.459" viewBox="0 0 557.315 661.459"><defs><style>.a{fill:url(#a);}.b{fill:url(#b);}.c{stroke:rgba(0,0,0,0);fill:url(#e);}.d{fill:url(#o);}.e{clip-path:url(#p);}.f{fill:#2f318d;}</style><linearGradient id="a" x1="0.027" y1="1" x2="1.111" y2="0.195" gradientUnits="objectBoundingBox"><stop offset="0" stop-color="#2f318d"/><stop offset="1" stop-color="#7c7fff"/></linearGradient><linearGradient id="b" x1="1.113" y1="-0.029" x2="0.768" y2="0.637" gradientUnits="objectBoundingBox"><stop offset="0" stop-color="#fff"/><stop offset="1" stop-color="#ffdad1"/></linearGradient><linearGradient id="e" x1="0.101" y1="0.906" x2="1.123" gradientUnits="objectBoundingBox"><stop offset="0" stop-color="#2ec7bc"/><stop offset="0.562" stop-color="#2cd8ae"/><stop offset="1" stop-color="#29ec9e"/></linearGradient><linearGradient id="o" x1="0.027" y1="1" x2="1.807" y2="-0.761" xlink:href="#a"/><clipPath id="p"><path class="a" d="M1283.719,195.911a5.134,5.134,0,0,1,1.14,9.417c-16.2,9.166-54.2,34.452-34.451,68.021,26.139,44.418,35.805,49.239,51.732,34.245s34.245-51.73,31.325-70.086-39.167-30.394-40.624-39.571S1346,212.371,1355.192,225.4s-5.242,66.193-30.82,90.86c0,0,32.348-18.878,46.815-43.048s12.464-87.941,20.193-88.917,12.15,65.208,6.86,87.92-54.037,64.8-54.037,64.8,55.992-44.508,64.674-57.079,17.323-63.79,22.16-58.963,1.991,54.106-4.272,69.09-63.706,59.977-63.706,59.977,46.358-20.344,54.081-26.148,19.282-38.671,24.6-32.4-5.759,35.758-13.476,46.394-89.784,68.7-120.7,72.6S1289.835,540.468,1330,597.915c0,0-105.746,49.878-115.905,38.776s-3.154-230.924.187-269.094-6.408-115.457-3.521-126.09C1213.349,231.969,1253.86,187.705,1283.719,195.911Z" transform="translate(-1208.802 -184.289)"/></clipPath></defs><g transform="translate(-1055.439 -4524.658)"><path class="b" d="M640.313,667.4H83.627S117.74,374.327,351.889,397.586,648.067,594.52,640.313,667.4Z" transform="translate(971.812 4366.638)"/><g transform="translate(0 28)"><path class="a" d="M239.314,472.1H83.627s9.54-81.964,75.024-75.459S241.482,451.715,239.314,472.1Z" transform="translate(1275.873 4569.29)"/><path class="a" d="M176.453,441.482H83.627s5.688-48.87,44.732-44.991S177.747,429.329,176.453,441.482Z" transform="translate(1021.339 4584.597)"/><g transform="translate(17.518 4417.037)"><g transform="translate(1224.519 79.756)"><g transform="translate(63.489 85.201)"><path class="c" d="M1252.992,280.022l-1.273.252a95.578,95.578,0,0,1-1.237-20.778c.534-10.568,3.274-25.182,13.282-34.782,11.573-11.1,13.728-30.487,15.458-46.065,1.105-9.937,2.058-18.522,5.185-22.882,7.7-10.732,11.584-31.093,11.622-31.3l1.277.24c-.16.846-3.975,20.847-11.843,31.815-2.929,4.086-3.865,12.512-4.951,22.27-1.753,15.786-3.937,35.432-15.848,46.856C1246.064,243.491,1252.922,279.658,1252.992,280.022Z" transform="translate(-1250.368 -124.468)"/></g><path class="c" d="M1289.892,195.822s-10.993,4.552-22.232-8.043-33.061-.213-38.919-9.177a180.624,180.624,0,0,0-11.69-15.873s12.792,5.183,21.805,3.43,25.3,3.6,31.557,11.732S1291.02,190.568,1289.892,195.822Z" transform="translate(-1217.05 -4.621)"/><path class="c" d="M1295.1,208.171s-2.527-11.281-13.005-11.771-30.093-9.49-36.238-25.226-11.7-33.738-18.337-39,4.482-2.929,17.161,9.854,17.2,29.769,26.474,32.735S1294.285,197.933,1295.1,208.171Z" transform="translate(-1209.365 -34.66)"/><path class="c" d="M1300.375,181.781c.446,1.629-7.872-9.284-14.882-11.664s-8.926-7.9-8.926-7.9a10.932,10.932,0,0,1-10.9-1.717c-5.595-4.244-8.647-18.991-15.732-27.528s-20.753-18.228-20.8-22.333,9.324,7.073,19,9.213,25.21,13.245,31.331,26.929S1298.4,174.553,1300.375,181.781Z" transform="translate(-1206.113 -52.602)"/><path class="c" d="M1289.354,173.253c.057.36-1.643-8.748-14.01-12.706s-16.674-20.33-16.209-32.861-4.28-14.32-6.008-21.281.44-14.583.44-14.583,3.028,12.695,10.888,17.527,14.17,17.076,13.657,25.5-5.234,8.686-.44,14.583S1288.793,169.708,1289.354,173.253Z" transform="translate(-1184.985 -68.831)"/><path class="c" d="M1255.512,181.09s3.041-3.116,10.739,5.208,12.3,15.662,25.161,9.141,36.853-8.661,39.258-13.617-13.5,4.68-26.5-1.117-26.639,4.43-32.848.4S1255.512,181.09,1255.512,181.09Z" transform="translate(-1182.221 10.006)"/><path class="c" d="M1262.4,185.195s10.9,1.715,23.758-4.806,30.544,12.771,47.382-4.066,29.105-21.091,22.121-21.416-22.859,11.365-31.546,6.132-53.079,25.283-61.715,24.157" transform="translate(-1175.98 -11.71)"/><path class="c" d="M1266.148,161.315s11.17-9.23,22.924-5.061,22.468,7.325,34.736,3.07,32.25-16,40.272-14.658-13.479-11.128-26.337-4.608-23.547,5.419-27.465,4.028-6.084,6.235-7.55,3.994-3.754-4.882-8.26-4.007S1267.1,153.973,1266.148,161.315Z" transform="translate(-1172.59 -26.869)"/><path class="c" d="M1272.147,157.54c.478-1.14,13.072-12.38,28.669-12.981s23.36-3.979,32.461-15.382,28.215-9.787,28.215-9.787-11.1-18.141-24.759-9.966-24.574,22.268-36.255,24.258S1272.147,157.54,1272.147,157.54Z" transform="translate(-1167.157 -54.806)"/><path class="c" d="M1277.388,167.192s-13.431-11.391-.81-20.58,15.936-23.394,16.45-31.819,7.049-11.378,17.051-16.222,10.654-18.815,10.654-18.815,5.581,20.054-4.985,29.218-7.275,26.575-15.174,35.5S1284.747,169.008,1277.388,167.192Z" transform="translate(-1168.04 -79.756)"/></g><g transform="translate(1208.802 278.95)"><path class="d" d="M1283.719,195.911a5.134,5.134,0,0,1,1.14,9.417c-16.2,9.166-54.2,34.452-34.451,68.021,26.139,44.418,35.805,49.239,51.732,34.245s34.245-51.73,31.325-70.086-39.167-30.394-40.624-39.571S1346,212.371,1355.192,225.4s-5.242,66.193-30.82,90.86c0,0,32.348-18.878,46.815-43.048s12.464-87.941,20.193-88.917,12.15,65.208,6.86,87.92-54.037,64.8-54.037,64.8,55.992-44.508,64.674-57.079,17.323-63.79,22.16-58.963,1.991,54.106-4.272,69.09-63.706,59.977-63.706,59.977,46.358-20.344,54.081-26.148,19.282-38.671,24.6-32.4-5.759,35.758-13.476,46.394-89.784,68.7-120.7,72.6S1289.835,540.468,1330,597.915c0,0-105.746,49.878-115.905,38.776s-3.154-230.924.187-269.094-6.408-115.457-3.521-126.09C1213.349,231.969,1253.86,187.705,1283.719,195.911Z" transform="translate(-1208.802 -184.289)"/><g class="e"><path class="a" d="M1206.589,331.919c3.491-.675,5.557-4.152,7.674-7.009s5.722-5.591,8.933-4.063c3.588,1.705,3.289,6.969,5.6,10.2a4.6,4.6,0,0,0,2.512,1.867c4.943,1.25,6.915-8.095,12.014-8.118,4.472-.019,5.73,6.885,9.966,8.318a4.8,4.8,0,0,0,4.887-1.2c2.273-2.374,2.371-7.216,5.635-7.605,3.672-.438,4.768,5.579,8.3,6.666,4.307,1.321,7.8-5.52,12.2-4.531,2.3.52,3.563,2.973,5.513,4.3,2.416,1.652,5.637,1.418,8.491.772s5.728-1.641,8.634-1.294,5.873,2.626,5.721,5.549" transform="translate(-1210.806 -61.026)"/><path class="a" d="M1211.232,336.943a31.563,31.563,0,0,1-.459,6.481" transform="translate(-1207.017 -46.054)"/><path class="a" d="M1215.038,337.15q-.84,3.036-1.677,6.071" transform="translate(-1204.674 -45.866)"/><path class="a" d="M1217.945,337.953a7.289,7.289,0,0,0,1.607,5.019" transform="translate(-1200.536 -45.139)"/><path class="a" d="M1221.929,338.1a17.525,17.525,0,0,1,1.359,4.716" transform="translate(-1196.915 -45.004)"/><path class="a" d="M1227.691,338.148q-.234,2.478-.469,4.956" transform="translate(-1192.122 -44.963)"/><path class="a" d="M1231.818,338.361a4.965,4.965,0,0,1,.154,3.438" transform="translate(-1187.96 -44.77)"/><path class="a" d="M1235.857,338.548a13.609,13.609,0,0,0,1.557,4.188" transform="translate(-1184.303 -44.601)"/><path class="a" d="M1241.62,337.35a27.2,27.2,0,0,0-.061,6.136" transform="translate(-1179.27 -45.685)"/><path class="a" d="M1246.932,336.746l-.394,5.025a1.586,1.586,0,0,0,.164,1.058c.214.3.757.351.9.015" transform="translate(-1174.647 -46.232)"/><path class="a" d="M1250.543,337.947a5.187,5.187,0,0,0,1.5,4.592" transform="translate(-1171.074 -45.145)"/><path class="a" d="M1207.707,317c4.407-3.213,9.034-6.33,14.293-7.775s11.325-.966,15.553,2.479c3.255,2.654,5.21,6.833,8.916,8.811,4.135,2.2,9.271,1.018,13.518-.964s8.223-4.728,12.811-5.688a17.754,17.754,0,0,1,16.758,5.694c1.179,1.372,2.37,3.064,4.173,3.239a6.328,6.328,0,0,0,2.356-.4,47.208,47.208,0,0,1,21.742-1.128" transform="translate(-1209.794 -71.847)"/><path class="a" d="M1207.6,427.363c8.876.067,17.8.128,26.56-1.309,10.3-1.688,20.161-5.418,29.7-9.646,24.275-10.755,48.02-25.9,60.9-49.112" transform="translate(-1209.894 -18.568)"/><path class="a" d="M1206.384,431.907c13.7,2.914,28,.839,41.52-2.8,25.018-6.721,48.472-18.722,69.412-33.972,8.394-6.113,16.664-13.072,21.091-22.465" transform="translate(-1210.992 -13.699)"/><path class="a" d="M1264.127,235.3c5.063-.051,10.181-.1,15.125,1.006s9.77,3.48,12.88,7.477c.93,1.2,1.717,2.8,1.073,4.177" transform="translate(-1158.703 -138.112)"/><path class="a" d="M1268.332,230.49a45.123,45.123,0,0,1,17.457,4.171,16.063,16.063,0,0,1,5.036,3.333,7.1,7.1,0,0,1,2.093,5.5" transform="translate(-1154.895 -142.452)"/><path class="a" d="M1297.183,211.47a16.374,16.374,0,0,1,10.071-.212,32.43,32.43,0,0,1,9.17,4.463c2.418,1.6,5.012,4.108,4.272,6.911" transform="translate(-1128.769 -160.491)"/><path class="a" d="M1300.23,245.724c1.328,4.461,2.712,9.034,5.545,12.727s7.479,6.372,12.058,5.541" transform="translate(-1126.01 -128.657)"/><path class="a" d="M1303.567,243.147q1.778,3.361,3.56,6.719c1.7,3.207,3.5,6.532,6.45,8.642s7.418,2.578,10.027.055" transform="translate(-1122.988 -130.991)"/><path class="a" d="M1317.228,222.628a19.224,19.224,0,0,1,20.485,14.286" transform="translate(-1110.617 -149.654)"/><path class="a" d="M1316.437,256.369" transform="translate(-1111.333 -119.018)"/><path class="a" d="M1315.235,257.371" transform="translate(-1112.422 -118.11)"/><path class="a" d="M1303.046,262.791c1.561,8.019,3.666,16.043,7.674,23.164s10.1,13.322,17.777,16.117" transform="translate(-1123.459 -113.202)"/><path class="a" d="M1223.207,197.236a36.5,36.5,0,0,0,23.713,28.09c.785.269,1.94.328,2.149-.475" transform="translate(-1195.758 -172.566)"/><path class="a" d="M1218.823,201.844c3,7.75,6.572,15.473,12.291,21.5s13.943,10.185,22.2,9.234" transform="translate(-1199.728 -168.393)"/><path class="a" d="M1267.15,218.968c1.69-5.785,4.413-11.449,8.912-15.46s11.009-6.1,16.74-4.24" transform="translate(-1155.965 -171.347)"/><path class="a" d="M1203.46,173.79l1.018,1.019" transform="translate(-1213.64 -193.797)"/><path class="a" d="M1244.758,190.137c-2.62.716-3.779,4.219-2.563,6.648s4.145,3.661,6.854,3.476a6.976,6.976,0,0,0,3.131-.917c2.218-1.336,3.234-4.042,3.516-6.614a4.989,4.989,0,0,0-.349-2.9,2.1,2.1,0,0,0-2.471-1.107" transform="translate(-1179.001 -180.376)"/><path class="a" d="M1252.868,190.858a7.032,7.032,0,0,0,13.171,3.981,5.144,5.144,0,0,0,.651-3.321,3.341,3.341,0,0,0-2.052-2.574" transform="translate(-1168.919 -180.075)"/><path class="a" d="M1305.234,183.364a40.8,40.8,0,0,0-2.353,13.6c0,2.529.332,5.286,2.121,7.071a2.853,2.853,0,0,0,2.571.959,3.622,3.622,0,0,0,2.052-2.079,33.577,33.577,0,0,0,3.291-9.526" transform="translate(-1123.609 -185.127)"/><path class="a" d="M1325.154,200.506a41.647,41.647,0,0,0-2.5,7.5,13.941,13.941,0,0,0,.463,7.8,7.553,7.553,0,0,0,2.471,3.367,4.9,4.9,0,0,0,4,.884,7.024,7.024,0,0,0,3.613-2.813,22.729,22.729,0,0,0,3.279-6.012" transform="translate(-1106.012 -169.604)"/><path class="a" d="M1331.584,239.091a40.047,40.047,0,0,0-3.63,20.186,3.388,3.388,0,0,0,.633,2.014,2.378,2.378,0,0,0,2.839.3,6.377,6.377,0,0,0,2.115-2.193,50.417,50.417,0,0,0,5.821-11.58" transform="translate(-1101.025 -134.664)"/></g></g><path class="f" d="M2573.552,822.637c-19.784-17.815-45.125-17.9-64.743-.125a37.548,37.548,0,0,1-13.125,7.924c-2.539.874-6.348-.008-7.486,2.166-1.212,2.315-.37,5.7-.423,8.625a6.99,6.99,0,0,1-.011,1.032c-.571,3.339.875,4.179,4.031,3.672,9.389-1.508,18.226-4.627,24.92-11.422,14.335-14.552,34.528-13.685,48.762-.154C2582.482,850.518,2587.229,834.953,2573.552,822.637Z" transform="translate(4082.627 1475.2) rotate(180)"/><path class="f" d="M2902.169,823.154c-20.793-18.552-44.692-18.551-65.922-.076-13.419,11.677-30.75,12.249-43.425.008-18.6-17.966-22-.278-9.945,10.508,18.761,16.787,44.423,16.77,63.193-.021a48.075,48.075,0,0,1,5.165-4.266c13.089-8.762,28.551-7.355,40.683,3.854,10.162,9.389,22.033,13.753,35.813,12.75,1.79-.13,4.537.552,4.59-2.706.066-4.094.016-8.189.016-12.542C2920.655,833.264,2910.767,830.824,2902.169,823.154Z" transform="translate(-1445.429 -162.094)"/><path class="f" d="M2902.169,823.154c-20.793-18.552-44.692-18.551-65.922-.076-13.419,11.677-30.75,12.249-43.425.008a47.628,47.628,0,0,0-66.513.145c-12.447,12.1-8.016,26.772,9.552,10.886a44,44,0,0,1,8.573-6.577c12.831-6.857,26.389-4.733,38.443,6.053,18.761,16.787,44.423,16.77,63.193-.021a48.075,48.075,0,0,1,5.165-4.266c13.089-8.762,28.551-7.355,40.683,3.854,10.162,9.389,22.033,13.753,35.813,12.75,1.79-.13,4.537.552,4.59-2.706.066-4.094.016-8.189.016-12.542C2920.655,833.264,2910.767,830.824,2902.169,823.154Z" transform="translate(-1337.429 -105.094)"/></g><path class="f" d="M2618.238,822.638c-13.749,12.316-31.009,12.316-44.685,0-19.784-17.815-45.125-17.9-64.743-.125a37.548,37.548,0,0,1-13.125,7.924c-2.539.874-6.348-.008-7.486,2.166-1.212,2.315-.37,5.7-.423,8.625a6.99,6.99,0,0,1-.011,1.032c-.571,3.339.875,4.179,4.031,3.672,9.389-1.508,18.226-4.627,24.92-11.422,14.335-14.552,34.528-13.685,48.762-.154a44.265,44.265,0,0,0,60.965-.1C2639.828,821.366,2638.228,804.731,2618.238,822.638Z" transform="translate(-1431.912 4236.942)"/><path class="f" d="M2573.552,822.637c-19.784-17.815-45.125-17.9-64.743-.125a37.548,37.548,0,0,1-13.125,7.924c-2.539.874-6.348-.008-7.486,2.166-1.212,2.315-.37,5.7-.423,8.625a6.99,6.99,0,0,1-.011,1.032c-.571,3.339.875,4.179,4.031,3.672,9.389-1.508,18.226-4.627,24.92-11.422,14.335-14.552,34.528-13.685,48.762-.154C2582.482,850.518,2587.229,834.953,2573.552,822.637Z" transform="translate(3691.145 5949.237) rotate(180)"/></g></g></svg>