<svg xmlns="http://www.w3.org/2000/svg" xmlns:xlink="http://www.w3.org/1999/xlink" width="445.563" height="761" viewBox="0 0 445.563 761"><defs><style>.a{fill:#fff;}.b,.e{fill:#ffdad1;}.c,.e{stroke:rgba(0,0,0,0);}.c{fill:url(#a);}.d{fill:#2f318d;}.e{stroke-miterlimit:10;}</style><linearGradient id="a" x1="0.101" y1="0.906" x2="1.123" gradientUnits="objectBoundingBox"><stop offset="0" stop-color="#2ec7bc"/><stop offset="0.562" stop-color="#2cd8ae"/><stop offset="1" stop-color="#29ec9e"/></linearGradient></defs><g transform="translate(-1090 -2324)"><rect class="a" width="368" height="761" transform="translate(1128 2324)"/><g transform="translate(-1397.491 2209.562)"><path class="b" d="M2487.806,248.587c10.3,7.377,18.058,15.47,26.7,22.5,11.455,9.331,17.333,22.883,25.626,34.587,5.667,8,11.9,15.515,17.957,23.176,13.113,16.581,26.132,33.255,39.8,49.373,12,14.153,19.007,31.084,26.854,47.367,16.477,34.19,36.688,66.038,57.142,97.856,15.3,23.793,33.815,45.022,51.059,67.272,2.305,2.975,4.832,5.781,7.1,8.787.88,1.168,2.465,2.427,1.721,4.051-.782,1.71-2.766,1.018-4.2,1.056-17.551.469-35.11.676-52.655,1.294-28.4,1-56.812,1.553-85.212.513-35.924-1.316-71.831-3.118-107.749-4.63-2.992-.126-4.389-1.075-4.242-4.256.2-4.47.138-8.954.138-13.432q-.012-163.549-.035-327.1Z" transform="translate(0.007 -3.938)"/><path class="c" d="M2772.727,256.978c54.031-3.474,99.317,45.322,100.114,95.108.883,55.17-45.138,100.266-97.461,100.474-54.064.215-99.322-45.167-98.693-99.981C2677.263,302.38,2720.811,255.069,2772.727,256.978Z" transform="translate(45.148 -48.365)"/><g transform="translate(2487.491 549.351)"><path class="d" d="M2902.169,823.154c-20.793-18.552-44.692-18.551-65.922-.076-13.419,11.677-30.75,12.249-43.425.008a47.628,47.628,0,0,0-66.513.145c-12.447,12.1-29.995,11.375-42.926-.3-20.029-18.087-45.156-18.2-65.146-.293-13.749,12.316-31.009,12.316-44.685,0-19.784-17.815-45.125-17.9-64.743-.125a37.548,37.548,0,0,1-13.125,7.924c-2.539.874-6.348-.008-7.486,2.166-1.212,2.315-.37,5.7-.423,8.625a6.99,6.99,0,0,1-.011,1.032c-.571,3.339.875,4.179,4.031,3.672,9.389-1.508,18.226-4.627,24.92-11.422,14.335-14.552,34.528-13.685,48.762-.154a44.265,44.265,0,0,0,60.965-.1c13.385-12.892,33.524-14.174,48.453-.006,17.183,16.308,43.4,15.752,60.966-.133a44,44,0,0,1,8.573-6.577c12.831-6.857,26.389-4.733,38.443,6.053,18.761,16.787,44.423,16.77,63.193-.021a48.075,48.075,0,0,1,5.165-4.266c13.089-8.762,28.551-7.355,40.683,3.854,10.162,9.389,22.033,13.753,35.813,12.75,1.79-.13,4.537.552,4.59-2.706.066-4.094.016-8.189.016-12.542C2920.655,833.264,2910.767,830.824,2902.169,823.154Z" transform="translate(-2487.489 -614.37)"/><path class="d" d="M2487.761,810.19c-.715,3.9,1.47,4.207,4.468,3.734a48.019,48.019,0,0,0,26.042-12.649,32.193,32.193,0,0,1,10.214-6.882c13.631-5.34,25.372-2.217,36.128,7.41,18.348,16.423,43.992,16.517,61.991.632,16.386-14.462,31.659-14.457,48.229.013,18.015,15.734,43.411,15.6,61.117-.313,15.563-13.991,32.019-14.018,47.423-.087a45.319,45.319,0,0,0,30.653,12.119c12.205-.025,23.052-3.628,31.262-12.064,12.363-12.7,33.708-14.13,48.051.131,9.5,9.447,21.741,12.849,35.116,11.722,1.779-.15,4.149.023,3.866-2.887-.371-3.828,1.05-7.783-.817-11.461-.118-.232-1.3.007-1.97.137-11.485,2.219-20.893-1.79-29.151-9.534a45.777,45.777,0,0,0-59.2-2.6c-2.97,2.339-5.638,5.1-8.755,7.21-12.843,8.685-28.24,7.255-40.308-3.542-19.3-17.271-44.569-17.878-63.192-1.517-16.343,14.358-31.334,14.329-47.654-.092a45.9,45.9,0,0,0-62.035.74c-14.382,13.3-31.658,13.454-46.272.416-19.452-17.355-44.691-17.335-63.886.152-4.148,3.779-8.652,7.508-14.126,8.044-6.739.66-8.152,3.895-7.187,9.62A4.535,4.535,0,0,1,2487.761,810.19Z" transform="translate(-2487.491 -615.445)"/><path class="d" d="M2487.771,778.2c-.71,3.779,1.268,4.276,4.365,3.8a47.333,47.333,0,0,0,26.037-12.63,31.511,31.511,0,0,1,12.61-7.813c12.157-3.623,23.189-1.473,32.562,7.273,9.2,8.584,19.833,13.42,32.748,13.376,11.5.081,22.182-3.5,30.274-11.78,12.863-13.16,33.844-13.887,48.565-.169,18.1,16.866,43.163,16,61.64-.735,14.4-13.041,32-12.98,46.4.161,18.406,16.793,44.026,16.9,62.715.254,15.427-13.738,32.075-13.571,47.52.391a43.988,43.988,0,0,0,28.46,11.814c10.939.43,10.874.362,10.743-10.641-.03-2.484-.14-3.616-3.272-3.086-11.153,1.887-20.463-1.865-28.722-9.463-18.16-16.708-44.387-16.486-62.7.229-14.39,13.135-31.972,13.19-46.331.145-18.7-16.991-44.4-17.118-63.109-.308-14.73,13.233-30.9,13.392-45.815.452-19.911-17.273-43.694-17.316-63.477-.116-15.06,13.1-31.339,13.024-46.379-.2-19.281-16.957-43.933-16.926-63.075.139-4.423,3.944-9.108,7.886-15.054,8.419-6.289.562-7.677,3.552-6.708,8.947A4.358,4.358,0,0,1,2487.771,778.2Z" transform="translate(-2487.491 -616.519)"/><path class="d" d="M2487.757,745.982c-.713,4,1.266,4.593,4.65,4.06a46.62,46.62,0,0,0,25.173-12.148,33.388,33.388,0,0,1,9.188-6.576c14.375-6.3,26.892-3.411,38.448,7.015,18,16.242,43.822,16.04,61.463.011,15.24-13.848,32.316-13.987,47.619-.388,18.794,16.7,43.33,16.61,62.126-.234,14.728-13.2,32.261-13.131,46.781.177,18.107,16.6,44.045,16.693,62.271.233,15.189-13.716,32.613-13.694,47.6.044a44.142,44.142,0,0,0,29.884,12.1c9.524.1,9.524.1,9.395-9.379a14.932,14.932,0,0,1-.005-1.55c.217-2.351-.561-2.821-2.99-2.367-10.751,2.013-20.007-1.293-28.023-8.513-19.6-17.655-44.1-17.816-63.8-.426-14.817,13.08-32.05,12.89-46.811-.586a43.789,43.789,0,0,0-15.752-9.572c-17.573-5.823-33.123-2.252-46.9,10.061-14.466,12.925-31.477,12.934-45.5.282-19.5-17.584-44.5-17.452-64.223.339-13.514,12.189-31.842,12.094-45.25-.235-19.1-17.565-44.723-17.666-63.767-.215-4.658,4.268-9.808,7.85-16.15,8.579-4.541.522-6.211,2.335-5.417,6.712A7.377,7.377,0,0,1,2487.757,745.982Z" transform="translate(-2487.489 -617.592)"/><path class="d" d="M2487.749,714.623c-.622,3.571,1.145,3.926,4.1,3.522,9.116-1.246,17.565-4.348,24.018-10.883,15.035-15.233,36.125-13.753,50.182-.341a43.237,43.237,0,0,0,59.6.025c14.172-13.607,35.163-14.034,49.9-.14,17.319,16.327,42.726,15.439,60.388-.631,14.979-13.627,32.548-13.587,47.594.11,17.773,16.18,43.568,16.3,61.464.277,15.766-14.111,32.845-14.114,48.4-.037a44.406,44.406,0,0,0,30,11.887c9.034.141,9.034.141,8.967-8.791a6.613,6.613,0,0,1,.011-1.032c.439-2.933-.872-3.414-3.53-2.954-10.584,1.834-19.593-1.516-27.544-8.506-20.539-18.06-44.023-17.938-64.5.227-13.294,11.794-31.136,11.854-44.555.2a70.362,70.362,0,0,0-8.04-6.442c-18.4-11.735-38.814-9.487-56.859,6.112-13.988,12.091-31.184,11.988-44.811-.27-19.739-17.755-44.112-17.654-64.088.264-13.489,12.1-31.844,12.018-45.326-.2-19.7-17.852-44.322-17.853-64.1.055-4.7,4.254-9.964,7.653-16.265,8.323-4.337.46-5.667,2.135-5.013,6.132A9.423,9.423,0,0,1,2487.749,714.623Z" transform="translate(-2487.487 -618.669)"/><path class="d" d="M2491.566,686.275a45.1,45.1,0,0,0,24.931-11.4c16.569-14.52,32.667-14.462,49.267.091,17.911,15.7,42.934,15.564,60.607-.333,15.468-13.914,32.35-14.077,48.122-.461,19.645,16.96,43.08,16.642,62.369-.848,13.538-12.275,9.964-25.424-7.142-9.189-13.246,12.571-33.5,14.775-49.393-.23-16.736-15.8-42.61-15.233-59.758.029-16.575,14.752-32.95,14.746-49.654-.1a44.774,44.774,0,0,0-60.538.791c-5.411,5.075-11.547,8.848-18.943,9.7-3.349.388-4.009,1.679-3.688,4.52a16.763,16.763,0,0,1,0,4.128C2487.3,686.172,2488.707,686.613,2491.566,686.275Z" transform="translate(-2487.485 -619.757)"/><path class="d" d="M2487.75,651.234c-.24,2.647.416,3.481,3.419,3.15,9.6-1.059,18.313-4.461,24.916-11.264,12.576-12.958,33.7-15.309,49.889-.211,17.641,16.456,43.053,15.707,60.787-.6,14.5-13.333,32.45-13.494,47.366-.423,19.846,17.391,43.016,17.172,62.662-.589,13.281-12.006,32.558-12.6,45.4-.105,18.092,17.6,45.975,17.789,64.582.016,13.176-12.587,32.527-11.971,45.721.53a46.59,46.59,0,0,0,30.1,13.019c9.371.585,9.9.059,9.734-9.117-.018-1.007-.136-2.013-.209-3.026-14.416,1.52-22.4-.6-30.869-8.138-20.3-18.052-43.674-18.105-63.96-.144-13.98,12.378-32.336,12.226-46.208-.462a52.653,52.653,0,0,0-8.575-6.594c-17.491-10.383-37.848-8.018-53.85,6.219-14.437,12.845-31.957,13.3-45.7,1.192-20.816-18.341-43.583-18.452-64.392-.231a33.81,33.81,0,0,1-11.368,6.94c-13.365,4.527-24.921,1.341-35.252-8.006-18.042-16.326-42.525-16.818-60.449-1.078-6.239,5.477-12.784,9.885-21.177,10.845-2.311.264-2.761,1.427-2.581,3.43A26.073,26.073,0,0,1,2487.75,651.234Z" transform="translate(-2487.484 -620.819)"/></g><path class="e" d="M170.428,148.821c-1.032-.012-2.065-.03-3.1-.03q-80.286-.005-160.574-.006c-7.571,0-7.583.011-5.748-7.223A28.8,28.8,0,0,1,2.053,138.7c1.054-1.165,1.008-2.641,1.15-4.062h0c2.431-15.4,8.181-29.284,18.551-41.1,2.125-2.422,4.095-4.979,6.135-7.474l-.027,0c.948-1.763,1.706-3.709,4.026-4.136q-.024.375-.08.72.056-.344.08-.719c2.54-6.338,8.958-9.288,12.721-14.557-.472-1.58.594-2.395,1.594-3.241q3.229-5.073,6.462-10.144L52.643,54h0l.005-.006c2.465-4.329,4.226-9.125,8.254-12.413h0c1.021-4.424,4.167-7.153,7.276-10.228,5.872-5.81,12.415-10.836,18.332-16.566.205-.688.554-1.2,1.379-1.147a28.75,28.75,0,0,1,7.227-6.177c4.056-5.2,9-8.372,15.971-7.23,1.392.229,2.771.128,2.824,2.05l-.049,0c1.743.843,1.382,2.768,2.119,4.127,1.366.569,1.332,2.1,2.1,3.071,2.129,1.59,3.171,3.887,4.063,6.283l-.02-.006c6.395,7.556,8.083,17.214,11.441,26.085,8.182,21.613,16,43.363,23.939,65.069a34.367,34.367,0,0,1,.955,3.958c-.016-.012-.036-.022-.053-.032,5.525,11.407,8.9,23.641,13.593,35.367.684,1.706.458,2.62-1.5,2.62ZM5.04,132.263l0-.006Zm14.8-33.194c-7.53,8.285-11.171,18.6-13.382,29.407a12.21,12.21,0,0,1-1.417,3.779,12.2,12.2,0,0,0,1.417-3.779c2.211-10.809,5.852-21.121,13.382-29.407Zm24.805-31.7.031,0Zm.039,0c1.142-.139,1.6-.617,1.73-1.26C46.289,66.745,45.83,67.224,44.69,67.363ZM46.422,66.1l0-.011Zm.007-.035v0Z" transform="translate(2760.213 462.751)"/></g></g></svg>