<svg xmlns="http://www.w3.org/2000/svg" xmlns:xlink="http://www.w3.org/1999/xlink" width="143.447" height="160" viewBox="0 0 143.447 160"><defs><style>.a,.e{fill:#4bc1bc;}.a{opacity:0.25;}.b{fill:url(#a);}.c{opacity:0.82;fill:url(#b);}.d{fill:#f2f2f2;}.e{opacity:0;}</style><linearGradient id="a" x1="0.176" y1="0.404" x2="0.58" y2="0.896" gradientUnits="objectBoundingBox"><stop offset="0" stop-color="#fff"/><stop offset="1" stop-color="#e3dbdb"/></linearGradient><linearGradient id="b" x1="0.5" x2="0.5" y2="1" gradientUnits="objectBoundingBox"><stop offset="0" stop-color="#fff" stop-opacity="0"/><stop offset="1" stop-color="#c2b6b6"/></linearGradient></defs><rect class="a" width="120" height="120" rx="60"/><g transform="translate(42 40)"><path class="b" d="M67.707,52.965h0a27.481,27.481,0,0,0-10.821,2.22h0a23.594,23.594,0,0,1-18.6,0h0a27.481,27.481,0,0,0-10.821-2.22h0A27.465,27.465,0,0,0,0,80.426v0H0a62.948,62.948,0,0,0,9.567,33.362l.778,1.241,9.01,39.645a7.543,7.543,0,0,0,7.357,5.872h0a7.545,7.545,0,0,0,7.448-6.3l6.207-37.229a7.326,7.326,0,0,1,7.219-6.122h0a7.326,7.326,0,0,1,7.227,6.122l6.207,37.229a7.546,7.546,0,0,0,7.44,6.3h0a7.543,7.543,0,0,0,7.357-5.872l9.01-39.645.778-1.241A62.947,62.947,0,0,0,95.172,80.43h0A27.464,27.464,0,0,0,67.711,52.965Z" transform="translate(0 -40.551)"/><g transform="translate(14.942 27.141)"><path class="c" d="M68.165,381.977a7.545,7.545,0,0,0,14.8-.43l5.284-31.7a181.288,181.288,0,0,1-24.5,12.72Z" transform="translate(-63.752 -294.992)"/><path class="c" d="M225.916,161.373a7.264,7.264,0,0,1,1.862,3.755l6.207,37.229a7.546,7.546,0,0,0,14.8.431l9.01-39.643.778-1.241a62.947,62.947,0,0,0,9.567-33.362,27.326,27.326,0,0,0-3.145-12.739A134.57,134.57,0,0,1,225.916,161.373Z" transform="translate(-187.909 -115.802)"/></g><g transform="translate(8.276 22.759)"><path class="d" d="M39.448,113.79H35.31c0-11.162,7.862-15.681,12-16.51l.811,4.055-.4-2.028.414,2.025C47.786,101.41,39.448,103.3,39.448,113.79Z" transform="translate(-35.31 -97.239)"/><rect class="d" width="4.138" height="4.138" transform="translate(16.552)"/></g></g><path class="e" d="M3.137,6.275h0A3.817,3.817,0,0,0,0,3.137H0A3.817,3.817,0,0,0,3.137,0h0A3.817,3.817,0,0,0,6.275,3.137h0A3.817,3.817,0,0,0,3.137,6.275Z" transform="translate(137.173 63.173)"/><path class="e" d="M3.31,6.62h0A4.027,4.027,0,0,0,0,3.31H0A4.027,4.027,0,0,0,3.31,0h0A4.027,4.027,0,0,0,6.62,3.31h0A4.027,4.027,0,0,0,3.31,6.62Z" transform="translate(42 131)"/></svg>