<svg xmlns="http://www.w3.org/2000/svg" width="28" height="28" viewBox="0 0 28 28"><defs><style>.a{fill:#2f318d;}</style></defs><path class="a" d="M211.976,209.488A2.488,2.488,0,1,1,209.488,207,2.488,2.488,0,0,1,211.976,209.488Zm0,0" transform="translate(-195.488 -195.488)"/><path class="a" d="M147.421,137.205a2.472,2.472,0,0,0-1.416-1.416,4.129,4.129,0,0,0-1.386-.257c-.787-.036-1.023-.044-3.016-.044s-2.229.008-3.016.043a4.132,4.132,0,0,0-1.386.257,2.473,2.473,0,0,0-1.417,1.416,4.131,4.131,0,0,0-.257,1.386c-.036.787-.044,1.023-.044,3.016s.008,2.229.044,3.016a4.129,4.129,0,0,0,.257,1.386,2.472,2.472,0,0,0,1.416,1.417,4.125,4.125,0,0,0,1.386.257c.787.036,1.023.043,3.016.043s2.229-.008,3.016-.043a4.125,4.125,0,0,0,1.386-.257,2.472,2.472,0,0,0,1.416-1.417,4.133,4.133,0,0,0,.257-1.386c.036-.787.043-1.023.043-3.016s-.008-2.229-.043-3.016A4.125,4.125,0,0,0,147.421,137.205Zm-5.818,8.234a3.833,3.833,0,1,1,3.833-3.833A3.833,3.833,0,0,1,141.6,145.439Zm3.984-6.921a.9.9,0,1,1,.9-.9A.9.9,0,0,1,145.587,138.519Zm0,0" transform="translate(-127.603 -127.607)"/><path class="a" d="M14,0A14,14,0,1,0,28,14,14,14,0,0,0,14,0Zm7.991,17.314a5.9,5.9,0,0,1-.374,1.951,4.111,4.111,0,0,1-2.351,2.351,5.9,5.9,0,0,1-1.951.374c-.857.039-1.131.048-3.314.048s-2.457-.009-3.315-.048a5.9,5.9,0,0,1-1.951-.374,4.111,4.111,0,0,1-2.351-2.351,5.9,5.9,0,0,1-.374-1.951c-.04-.857-.049-1.131-.049-3.315s.009-2.457.048-3.314a5.9,5.9,0,0,1,.373-1.951A4.113,4.113,0,0,1,8.734,6.383a5.9,5.9,0,0,1,1.951-.374c.857-.039,1.131-.048,3.314-.048s2.457.009,3.314.049a5.9,5.9,0,0,1,1.951.373,4.112,4.112,0,0,1,2.351,2.351,5.9,5.9,0,0,1,.374,1.951c.039.857.048,1.131.048,3.314S22.03,16.457,21.991,17.314Zm0,0"/></svg>