<svg xmlns="http://www.w3.org/2000/svg" xmlns:xlink="http://www.w3.org/1999/xlink" width="553.069" height="672.364" viewBox="0 0 553.069 672.364"><defs><style>.a{fill:none;stroke:#2f318d;stroke-width:12px;}.b{fill:url(#a);}.c{clip-path:url(#b);}.d{clip-path:url(#d);}.e{opacity:0.215;}.f{stroke:rgba(0,0,0,0);fill:url(#e);}.g{fill:#2f318d;}.h{fill:#ffdad1;}.i{fill:#f1d8c8;}</style><linearGradient id="a" x1="0.547" y1="0.421" x2="1.298" y2="-0.158" gradientUnits="objectBoundingBox"><stop offset="0" stop-color="#2f318d"/><stop offset="1" stop-color="#28294b"/></linearGradient><clipPath id="b"><path class="a" d="M0,595.5V162.279H0C.663,72.539,73.775,0,163.867,0s163.2,72.539,163.862,162.279h0V595.5Z" transform="translate(0 0)"/></clipPath><clipPath id="d"><path class="b" d="M-2027.575,5992.812h-71.935V6050h-66.024v49.249h-70.551v47.911h-65.607V6200.3h-62.368v49.478h-62.782v44.976h-59.147v125.159h458.413Z" transform="translate(2485.989 -5992.812)"/></clipPath><linearGradient id="e" x1="0.101" y1="0.906" x2="1.123" gradientUnits="objectBoundingBox"><stop offset="0" stop-color="#2ec7bc"/><stop offset="0.562" stop-color="#2cd8ae"/><stop offset="1" stop-color="#29ec9e"/></linearGradient></defs><g transform="translate(-313.5 -5586.87)"><g transform="translate(464.85 5622.138)"><g class="c" transform="translate(0 0)"><path class="b" d="M-2027.575,5992.812h-71.935V6050h-66.024v49.249h-70.551v47.911h-65.607V6200.3h-62.368v49.478h-62.782v44.976h-59.147v125.159h458.413Z" transform="translate(2369.914 -5693.058)"/><g class="d" transform="translate(-116.075 299.754)"><path class="e" d="M1943.141,564.793c16.842.194,33.7-.575,50.524.775,12.3.987,12.351.9,10.755,12.853q-1.2,8.972-2.723,17.9a6.415,6.415,0,0,0,2.422,6.669,256.874,256.874,0,0,1,28.729,29.18c2.69,3.926,5.586,7.729,8.034,11.8a94.7,94.7,0,0,1,13.608,57.59c-1.9,22.333-9.6,43.4-19.561,63.484-4.868,9.813-10.222,19.386-15.355,29.067-2.368,2.011-3.536,4.862-5.043,7.441-6.665,11.411-14.235,22.234-21.383,33.331a6.965,6.965,0,0,1-5.917,3.338c-5.239.343-10.476.921-15.719.982-21.165.248-42.334.455-63.5.4-5.541-.014-11.072-1.117-16.622-1.533-3.393-.256-5.482-2.184-7.3-4.744-12.27-17.272-22.616-35.739-33.4-53.929-8.111-13.684-15.882-27.629-20.647-42.889-11.907-38.136-7.308-73.173,20.2-103.729q12.952-14.386,27.037-27.639a10.2,10.2,0,0,0,3.448-9.749c-1.118-7.872-1.613-15.83-2.483-23.74-.3-2.73.334-4.047,3.422-4.2,9.372-.459,18.73-1.2,28.093-1.834,4.563.242,9.13.583,13.66-.383l2.659-.264,11.648-.077Z" transform="translate(-1825.906 -479.45)"/></g></g></g><g transform="translate(314 5587.379)"><path class="f" d="M2311.372,424.157c-57.156,16.407-107.283,1.029-139.4-43.3-18.3-25.268-24.58-53.908-21.717-84.748,5.294-28.9,17.279-54.142,39.617-74.006a119.693,119.693,0,1,1,151.059,185.4C2331.746,414.356,2321.456,419.02,2311.372,424.157Z" transform="translate(-1837.592 -191.742)"/><path class="a" d="M0,595.5V162.279H0C.663,72.539,73.775,0,163.867,0s163.2,72.539,163.862,162.279h0V595.5Z" transform="translate(150.851 34.758)"/><path class="g" d="M1943.141,564.793c16.842.194,33.7-.575,50.524.775,12.3.987,12.351.9,10.755,12.853q-1.2,8.972-2.723,17.9a6.415,6.415,0,0,0,2.422,6.669,256.874,256.874,0,0,1,28.729,29.18c2.69,3.926,5.586,7.729,8.034,11.8a94.7,94.7,0,0,1,13.608,57.59c-1.9,22.333-9.6,43.4-19.561,63.484-4.868,9.813-10.222,19.386-15.355,29.067-2.368,2.011-3.536,4.862-5.043,7.441-6.665,11.411-14.235,22.234-21.383,33.331a6.965,6.965,0,0,1-5.917,3.338c-5.239.343-10.476.921-15.719.982-21.165.248-42.334.455-63.5.4-5.541-.014-11.072-1.117-16.622-1.533-3.393-.256-5.482-2.184-7.3-4.744-12.27-17.272-22.616-35.739-33.4-53.929-8.111-13.684-15.882-27.629-20.647-42.889-11.907-38.136-7.308-73.173,20.2-103.729q12.952-14.386,27.037-27.639a10.2,10.2,0,0,0,3.448-9.749c-1.118-7.872-1.613-15.83-2.483-23.74-.3-2.73.334-4.047,3.422-4.2,9.372-.459,18.73-1.2,28.093-1.834,4.563.242,9.13.583,13.66-.383l2.659-.264,11.648-.077Z" transform="translate(-1817.375 -167.759)"/><path class="f" d="M1942.845,550.4l-5.407.1c-.66-8.333-1.335-16.665-1.975-25-.667-8.692-.652-8.693-9.483-8.539-6.6-.969-13.231-1.726-19.778-2.952-13.3-2.491-23.966-10.247-34.073-18.468-23.783-19.345-41.157-42.771-45.41-74.253-.868-6.419-3.073-12.659-4.687-18.976-.268-1.047-.813-2.084.47-3.1.392.282.957.469,1.027.77,3.742,15.993,12.978,28.978,23.2,41.231,19.445,23.307,40.3,45.173,66.79,60.763,3.822,2.249,7.346,5.292,12.082,5.648l.015-.159c-.576,1.233.488,1.05,1.093,1.266.814,1.343,2.34,1.546,3.569,2.223,3.332,1.836,4.126,1.131,4.548-2.9.769-7.359-3.052-11.03-8.748-13.907-31.042-25.011-56.674-54.964-78.27-88.22-16.278-25.067-26.836-52.671-30.527-82.6a20.465,20.465,0,0,1-.2-2.366c0-.259.3-.521.5-.851,1.811-.284,1.972,1.286,2.306,2.341,10.744,33.927,32.244,61.127,54.944,87.507,17.854,20.748,35.384,41.729,50.926,64.3,2.436,4.263,4.874,8.527,7.679,13.438,0-7.7-.254-14.456.076-21.179.3-6.031-3.09-9.521-7.411-12.646-.2-1.511-1.225-2.505-2.113-3.638-26.823-34.215-50.167-70.535-66.554-111-6.178-15.254-10.983-30.9-11.208-47.583-.055-4.079.094-8.15,2.049-11.832,1.636.251,1.551,1.419,1.643,2.25,1.891,16.986,8.957,32.05,17.232,46.67,15.521,27.42,33.294,53.505,48.224,81.277,3.24,6.026,6.407,12.091,9.607,18.136l7.628,16.149c.735-5.608.571-11.1.778-16.573.238-6.34-2.729-11.194-6.6-15.734-5.13-10.254-11.422-19.826-17.527-29.494-16.019-25.366-28.269-52.3-34.588-81.751-2.643-12.323-3.7-24.58,1.615-36.544,1.377-3.1,1.6-3.288,4.385-5.316.159.446.549.984.413,1.241-5.473,10.268-3.1,20.566.536,30.495,7.678,20.973,19,40.248,28.962,60.149,4.973,9.932,10.179,19.748,15.28,29.614l7.267,17.966c.123-10.518,1.238-19.987-4.033-28.577a442.733,442.733,0,0,1-9.617-60.292c-2.058-24.936-.872-49.38,11.657-71.969a1.814,1.814,0,0,1,.224-.42c1.038-1.026,1-3.853,2.816-3.11,2.008.823.1,2.783-.279,4.115a140.468,140.468,0,0,0-4.856,45.406,455.04,455.04,0,0,0,5.323,52.417c.7-5.749,1.244-11.522,2.14-17.241,3.542-22.621,8.129-44.945,19.812-65.087a90.7,90.7,0,0,1,10.573-14.724c.874-.986,1.682-2.925,3.319-1.819,1.279.864.032,2.346-.383,3.464-8.116,21.854-12.415,44.732-18.065,67.246a465.832,465.832,0,0,0-12.3,72.343c3.812-9.393,7.317-18.885,11.036-28.294,7.847-19.856,16.433-39.363,28.058-57.376q9.934-15.392,19.894-30.769c3.1-1.535,3.689-6.356,8.087-6.2.607,6.427-2.1,12.106-4.133,17.911-3.167,9.062-8.026,17.318-12.681,25.652-15.786,28.271-29.689,57.579-46.48,85.273-3.77,6.216-5.658,12-5.2,19.057.383,5.858.078,11.759.078,18.523,2.948-3.821,3.669-7.783,5.466-11.2,7.709-14.671,16.48-28.7,25.31-42.714,13.425-21.3,26.98-42.487,43.983-61.2a94.117,94.117,0,0,1,24.348-19.012c1.073-.595,2.279-1.775,3.426-.673,1.171,1.125.008,2.4-.6,3.422-7.031,11.744-13.907,23.587-21.219,35.154-14.636,23.149-29.812,45.955-46.146,67.941-9.595,12.917-20.538,24.745-31.89,36.154a8.475,8.475,0,0,0-2.773,6.731c.175,6.111.054,12.232.571,18.477,5.367-10.345,12.37-19.266,19.817-27.925,14.587-16.962,31.01-31.994,47.963-46.5,15.983-13.677,30.761-28.642,45.977-43.139,7.987-7.61,16.525-14.479,26.307-19.661,1.424-.755,2.829-2.2,5.08-1.177-1.39,3.394-4.4,5.31-6.68,7.761-13.389,14.374-24.466,30.564-36.319,46.137-14.766,19.4-32.976,35.31-50.942,51.544-15.372,13.89-31.577,26.75-47.539,39.916a10.137,10.137,0,0,0-3.984,9.1c.249,5.524.064,11.068.064,18.039,8.362-5.985,15.554-10.915,21.429-17.261,25.01-27.021,55.48-47.169,85.177-68.3,11.3-8.042,21.478-17.477,32.434-25.946,6.424-4.966,12.7-10.132,19.751-14.218.907-.526,1.862-1.6,2.958-.478.982,1.005.446,2.045-.307,2.973-14.21,17.548-26.932,36.292-43.282,52.117-16.86,16.317-36.109,29.194-56.235,40.943-16.358,9.55-32.156,20.051-48.938,28.883-.986.517-1.953,1.072-2.958,1.549-9.891,4.682-10.884,6.868-8.784,17.822.67,3.5,2.9,2.339,4.694,1.881,7.424-1.894,14.44-4.975,21.565-7.738,30.992-12.022,56.337-32.53,81.1-53.922,11.075-9.566,21.112-20.34,33.276-28.635,1.366-.932,2.436-2.638,4.989-2.024-3.425,4.7-6.921,9.061-9.933,13.733-6.292,9.763-11.234,20.353-18.138,29.752-17.692,24.081-41.549,39.041-69.981,47.082-14.137,4-28.68,5.88-43.3,6.94-3.248.235-4.167,1.2-3.856,4.243C1941.013,530.421,1941.9,540.415,1942.845,550.4Z" transform="translate(-1817.079 -153.371)"/><path class="h" d="M2099.72,809.211c-3.9-13.748-2.167-27.643.177-41.213,4.479-25.927,15.548-47.649,41.317-59.118a81.39,81.39,0,0,0,17.813-11.029,14.076,14.076,0,0,0,5.691-12.032c-.18-5.831-.063-11.672-.068-17.508,0-1.558-.074-3.228,1.672-3.974,1.785-.761,2.9.565,3.982,1.643,2.416,2.416,5.1,4.61,6.552,7.854.406.91.908,2.058,2.125,1.888,1.352-.188,1.035-1.586,1.3-2.5a26.72,26.72,0,0,1,3.921-8.325c.852-1.175,1.045-3.184,3.149-2.788,1.905.359,1.842,2.256,2.448,3.61,1.532,3.422,1.486,7.426,4.114,10.884,2.788-3.456,5.461-6.857,8.237-10.17,1.274-1.522,2.369-3.832,4.81-3.184,2.709.719,1.919,3.29,1.95,5.239.075,4.634.013,9.269.032,13.9.045,10.662,4.427,15.9,14.619,19.333,11.776,3.967,24.148,6.886,33.583,15.889a4.192,4.192,0,0,0,3.369.937c2.544,5.587,7.879,9.282,10,15.261,1.229,3.457,1.784,7.3,4.3,10.245-1.813,13.272-9.06,22.426-20.9,28.445-18.791,9.551-31.458,24-34.2,45.536-1.2,9.451-.108,18.6,5.377,27.049,4.1,6.319,9.848,10.851,14.906,16.141-11.169,7.813-23.963,11.133-37.2,11.788-31.085,1.541-58.416-8.3-81.352-29.434a72.979,72.979,0,0,1-20.034-30.7A36.421,36.421,0,0,0,2099.72,809.211Z" transform="translate(-1769.761 -201.722)"/><path class="g" d="M2234.789,849.759c-4.69-4.906-10.023-9.109-13.824-14.969-5.087-7.84-6.1-16.322-4.986-25.086,2.546-19.977,14.294-33.374,31.722-42.232,10.982-5.582,17.7-14.072,19.385-26.381.026-.637.067-1.272.076-1.908.116-8.586.116-8.4,8.668-8.485,4.743-.051,7.011,1.415,6.9,6.512-.308,14.407,6.506,24.912,17.86,33.378,11.319,8.439,20.573,18.581,25.493,32.473,6.677,18.847-2.4,40.918-21,50.142-23.474,11.642-46.186,10.656-68.5-2.869A8.014,8.014,0,0,0,2234.789,849.759Z" transform="translate(-1775.7 -189.81)"/><path class="i" d="M1930.542,519.913l1.092,1.265C1931.03,520.963,1929.967,521.146,1930.542,519.913Z" transform="translate(-1763.298 -165.81)"/></g></g></svg>