<svg xmlns="http://www.w3.org/2000/svg" width="28" height="28" viewBox="0 0 28 28"><defs><style>.a{fill:#2f318d;}</style></defs><path class="a" d="M14,0A14,14,0,1,0,28,14,14,14,0,0,0,14,0Zm6.392,10.916q.009.207.009.415a9.081,9.081,0,0,1-9.143,9.143h0A9.1,9.1,0,0,1,6.333,19.03a6.536,6.536,0,0,0,.766.044A6.448,6.448,0,0,0,11.091,17.7a3.217,3.217,0,0,1-3-2.232,3.2,3.2,0,0,0,1.451-.055,3.214,3.214,0,0,1-2.578-3.15c0-.015,0-.028,0-.041a3.191,3.191,0,0,0,1.455.4,3.216,3.216,0,0,1-.995-4.29,9.123,9.123,0,0,0,6.624,3.358,3.215,3.215,0,0,1,5.476-2.93,6.445,6.445,0,0,0,2.041-.78A3.226,3.226,0,0,1,20.15,9.758,6.409,6.409,0,0,0,22,9.252,6.53,6.53,0,0,1,20.392,10.916Zm0,0" transform="translate(0 0)"/></svg>